<?xml version="1.0" encoding="utf-8"?>
<!-- Generator: Adobe Illustrator 21.0.0, SVG Export Plug-In . SVG Version: 6.00 Build 0)  -->
<svg version="1.1" id="Layer_1" xmlns="http://www.w3.org/2000/svg" xmlns:xlink="http://www.w3.org/1999/xlink" x="0px" y="0px"
	 viewBox="0 0 384 64" style="enable-background:new 0 0 384 64;" xml:space="preserve">
<style type="text/css">
	.st0{fill:#18181b;}
</style>
<g>
	<path class="st0" d="M118.1,9c-2.2-1.1-4.8-1.7-7.3-1.7c-6.5,0-12.5,4-12.5,12.1v35.8c0,0.8,0.6,1.4,1.4,1.4h5.7
		c0.8,0,1.4-0.6,1.4-1.4V29.1h7.4c0.8,0,1.4-0.6,1.4-1.4v-3.4c0-0.8-0.6-1.4-1.4-1.4h-7.4v-3.6c0-3.1,2-4.5,4.6-4.5
		c1.1,0,2.3,0.3,3.4,0.8c0.7,0.4,1.6,0.1,1.9-0.6l2-3.9C119.1,10.3,118.8,9.4,118.1,9z"/>
	<path class="st0" d="M154.8,21.4h-5.7c-0.8,0-1.4,0.6-1.4,1.4V27c-2.6-3.9-6.7-6.1-12.1-6c-9.9,0.1-16.5,7.3-16.5,17.9
		c0,10.8,6.7,18.2,16.8,18.2c5.3,0,9.3-2.2,11.8-6v4.2c0,0.8,0.6,1.4,1.4,1.4h5.7c0.8,0,1.4-0.6,1.4-1.4V22.8
		C156.3,22,155.6,21.4,154.8,21.4z M147.5,39.3c0,1-0.1,2.1-0.3,3.1c-1.2,4.5-4.6,7.5-9.5,7.5c-5.9,0-10-4.4-10-10.8
		c0.1-6.3,4.2-10.8,10-10.8c4.9,0,8.3,2.9,9.5,7.5c0.3,1,0.3,2.1,0.3,3.1V39.3z"/>
	<path class="st0" d="M171.6,30.8c0-2.2,2-3.1,4.8-3.1c2.7,0,6,0.9,9.1,2.5c0.7,0.4,1.6,0.1,2-0.6l1.8-3.7c0.3-0.7,0.1-1.5-0.6-1.9
		c-3.4-1.9-7.7-3-11.8-3c-7.1,0-13.3,3.4-13.3,10.6c-0.1,12.5,18.4,9,18.4,15.5c0,2.3-2.2,3.3-5.2,3.3c-3.3,0-7.5-1.2-10.6-3.4
		c-0.7-0.5-1.7-0.2-2.1,0.6l-1.7,3.4c-0.3,0.6-0.1,1.4,0.4,1.8c3.7,2.7,8.7,4.2,13.6,4.2c7.5,0,13.9-3.5,13.9-10.7
		C190.3,33.7,171.6,36.8,171.6,30.8z"/>
	<path class="st0" d="M213.8,49.6c-0.2-0.8-1.1-1.2-1.9-0.9c-1.3,0.5-2.5,0.8-3.5,0.8c-2.4,0-3.8-1.7-3.8-5.5V29.1h8.7
		c0.8,0,1.4-0.6,1.4-1.4v-3.4c0-0.8-0.6-1.4-1.4-1.4h-8.7v-8.3c0-0.8-0.6-1.4-1.4-1.4h-5.7c-0.8,0-1.4,0.6-1.4,1.4v30.9
		c0,7.7,4.6,11.6,10.6,11.6c2.5,0,5.1-0.7,7.6-2c0.6-0.3,1-1.1,0.7-1.7L213.8,49.6z"/>
	<path class="st0" d="M294.9,21.1c-11.2,0-18.7,7.2-18.7,17.9c0,10.8,7.5,18,18.7,18c11,0,18.6-7.3,18.6-18
		C313.4,28.3,305.9,21.1,294.9,21.1z M294.9,49.8c-5.9,0-10-4.4-10-10.7s4.1-10.7,10-10.7c5.8,0,9.9,4.4,9.9,10.7
		S300.7,49.8,294.9,49.8z"/>
	<path class="st0" d="M338.8,21.1c-4.7,0.5-8.3,2.9-10.4,7v-5.4c0-0.8-0.6-1.4-1.4-1.4h-5.7c-0.8,0-1.4,0.6-1.4,1.4v32.4
		c0,0.8,0.6,1.4,1.4,1.4h5.7c0.8,0,1.4-0.6,1.4-1.4V39.7c0-6,4-10.2,10.6-10.3c0.8,0,1.4-0.7,1.4-1.4v-5.3
		C340.4,21.7,339.7,21,338.8,21.1z"/>
	<path class="st0" d="M377.6,54.5L365.2,35l10.7-11.2c0.9-0.9,0.2-2.4-1-2.4h-5.9c-0.4,0-0.8,0.2-1,0.4l-14.1,14.2V9.1
		c0-0.8-0.6-1.4-1.4-1.4h-5.7c-0.8,0-1.4,0.6-1.4,1.4v46.1c0,0.8,0.6,1.4,1.4,1.4h5.7c0.8,0,1.4-0.6,1.4-1.4v-8.3l5.4-5.7l9.1,14.8
		c0.3,0.4,0.7,0.7,1.2,0.7h6.8C377.5,56.7,378.2,55.4,377.6,54.5z"/>
	<path class="st0" d="M270.8,25.7v-2.8c0-0.8-0.6-1.4-1.4-1.4h-5.7c-0.8,0-1.4,0.6-1.4,1.4l0,8.8c0,3.5,0.1,7,0,10.5
		c-0.1,2.8-1.7,5.3-4.5,6.1c-3.6,1-7.4-1.5-7.8-5.2c-0.1-1,0-2,0-3c0-2.2,0-4.4,0-6.6l0-10.7c0-0.8-0.6-1.4-1.4-1.4h-5.7
		c-0.8,0-1.4,0.6-1.4,1.4l0,8.8c0,3.5,0.1,7,0,10.5c-0.1,2.9-1.8,5.4-4.7,6.2c-3.6,0.9-7.3-1.7-7.6-5.4c-0.1-0.9,0-1.9,0-2.8
		c0-2.2,0-4.4,0-6.6l0-10.7c0-0.8-0.6-1.4-1.4-1.4H222c-0.8,0-1.4,0.6-1.4,1.4c0,6.5,0,13.1,0,19.6c0,6.9,5,13,11.9,14.3
		c5.3,1,10.4-1.3,13.3-5.9c2.1,3.4,5.6,5.7,9.6,6.1c3.6,0.3,7.4-1,10.2-3.3c2.3-1.9,4-4.6,4.8-7.5c0.6-2.1,0.5-4.2,0.5-6.3
		C270.8,35.1,270.8,30.4,270.8,25.7z"/>
	<path class="st0" d="M71.1,45.2L71.1,45.2L56.5,33.9l1.4,7.8l10,7.7c1.9,1.4,2.4,4,1.2,6.1c-1.2,2-3.7,2.9-5.8,2c0,0,0,0,0,0
		c0,0-0.1,0-0.1,0l-11.8-4.9c-0.8,0.6-1.7,1.1-2.7,1.5l-3.8,1.6l16.4,6.8c1.2,0.5,2.5,0.8,3.8,0.8c1.1,0,2.2-0.2,3.2-0.5
		c2.3-0.8,4.2-2.4,5.4-4.5c1.2-2.1,1.6-4.6,1.1-6.9C74.3,48.8,73,46.6,71.1,45.2z"/>
	<path class="st0" d="M54.3,37.6l-3.7-28c0,0,0,0,0,0c-0.3-2.4-1.5-4.6-3.3-6.2c-1.8-1.6-4.2-2.5-6.6-2.5S35.9,1.8,34,3.4
		c-1.8,1.6-3,3.8-3.3,6.2l0,0l-2.9,22L10.2,45.2l0,0c-1.9,1.5-3.2,3.6-3.7,6C6,53.5,6.4,56,7.6,58.1c1.2,2.1,3.1,3.7,5.4,4.5
		c1,0.4,2.1,0.5,3.2,0.5c1.3,0,2.6-0.3,3.8-0.8l26.1-10.8C51.7,49.3,55.1,43.5,54.3,37.6z M36,10.3c0.3-2.3,2.3-4.1,4.7-4.1
		S45,8,45.3,10.3l0,0l2.2,16.9c-4.2-2.6-9.6-2.6-13.8,0L36,10.3z M18.1,57.4c-2.2,0.9-4.7,0-5.9-2c-1.2-2-0.7-4.6,1.2-6.1l22.4-17.2
		c2.9-2.2,6.9-2.2,9.7,0l3,2.3l0.5,3.8c0.5,3.6-1.5,7-4.9,8.4l-3.5,1.4l-3.5-1.4c-3.1-1.3-5-4.3-4.9-7.5l-4.8,3.7
		c1,3.4,3.2,6.3,6.4,8.1L18.1,57.4z"/>
</g>
</svg>
